<svg width="13" height="25" viewBox="0 0 13 25" fill="none" xmlns="http://www.w3.org/2000/svg">
<path d="M12.0781 14H8.5625V24.5H3.875V14H0.078125V9.64062H3.875V6.35938C3.875 5.10937 4.10938 4.04688 4.57812 3.17188C5.04688 2.29687 5.70312 1.64062 6.54688 1.20312C7.42188 0.734375 8.42188 0.5 9.54688 0.5C10.0469 0.5 10.5781 0.53125 11.1406 0.59375C11.7031 0.625 12.1406 0.671875 12.4531 0.734375L12.9219 0.78125V4.48438H11.0469C10.1719 4.48438 9.53125 4.71875 9.125 5.1875C8.75 5.625 8.5625 6.17188 8.5625 6.82812V9.64062H12.7344L12.0781 14Z" fill="white"/>
</svg>
