<svg width="22" height="21" viewBox="0 0 22 21" fill="none" xmlns="http://www.w3.org/2000/svg">
<path d="M6.70312 6.70312C7.76562 5.64062 9.04688 5.10938 10.5469 5.10938C12.0469 5.10938 13.3125 5.64062 14.3438 6.70312C15.4062 7.73438 15.9375 9 15.9375 10.5C15.9375 12 15.4062 13.2812 14.3438 14.3438C13.3125 15.375 12.0469 15.8906 10.5469 15.8906C9.04688 15.8906 7.76562 15.375 6.70312 14.3438C5.67188 13.2812 5.15625 12 5.15625 10.5C5.15625 9 5.67188 7.73438 6.70312 6.70312ZM8.0625 12.9844C8.75 13.6719 9.57812 14.0156 10.5469 14.0156C11.5156 14.0156 12.3438 13.6719 13.0312 12.9844C13.7188 12.2969 14.0625 11.4688 14.0625 10.5C14.0625 9.53125 13.7188 8.70312 13.0312 8.01562C12.3438 7.32812 11.5156 6.98438 10.5469 6.98438C9.57812 6.98438 8.75 7.32812 8.0625 8.01562C7.375 8.70312 7.03125 9.53125 7.03125 10.5C7.03125 11.4688 7.375 12.2969 8.0625 12.9844ZM17.0156 4.03125C17.2656 4.25 17.3906 4.53125 17.3906 4.875C17.3906 5.21875 17.2656 5.51563 17.0156 5.76562C16.7969 6.01562 16.5156 6.14062 16.1719 6.14062C15.8281 6.14062 15.5312 6.01562 15.2812 5.76562C15.0312 5.51563 14.9062 5.21875 14.9062 4.875C14.9062 4.53125 15.0312 4.25 15.2812 4.03125C15.5312 3.78125 15.8281 3.65625 16.1719 3.65625C16.5156 3.65625 16.7969 3.78125 17.0156 4.03125ZM21 6.1875C21.0312 7.03125 21.0469 8.46875 21.0469 10.5C21.0469 12.5312 21.0312 13.9688 21 14.8125C20.9062 16.7188 20.3281 18.2031 19.2656 19.2656C18.2344 20.2969 16.7656 20.8438 14.8594 20.9062C14.0156 20.9688 12.5781 21 10.5469 21C8.51562 21 7.07812 20.9688 6.23438 20.9062C4.32812 20.8125 2.85938 20.25 1.82812 19.2188C1.42188 18.8438 1.09375 18.4062 0.84375 17.9062C0.59375 17.4062 0.40625 16.9219 0.28125 16.4531C0.1875 15.9844 0.140625 15.4375 0.140625 14.8125C0.078125 13.9688 0.046875 12.5312 0.046875 10.5C0.046875 8.46875 0.078125 7.01563 0.140625 6.14062C0.234375 4.26562 0.796875 2.8125 1.82812 1.78125C2.85938 0.71875 4.32812 0.140625 6.23438 0.046875C7.07812 0.015625 8.51562 0 10.5469 0C12.5781 0 14.0156 0.015625 14.8594 0.046875C16.7656 0.140625 18.2344 0.71875 19.2656 1.78125C20.3281 2.8125 20.9062 4.28125 21 6.1875ZM18.75 16.6875C18.8438 16.4375 18.9219 16.125 18.9844 15.75C19.0469 15.3438 19.0938 14.875 19.125 14.3438C19.1562 13.7812 19.1719 13.3281 19.1719 12.9844C19.1719 12.6406 19.1719 12.1562 19.1719 11.5312C19.1719 10.9062 19.1719 10.5625 19.1719 10.5C19.1719 10.4062 19.1719 10.0625 19.1719 9.46875C19.1719 8.84375 19.1719 8.35938 19.1719 8.01562C19.1719 7.67188 19.1562 7.23437 19.125 6.70312C19.0938 6.14062 19.0469 5.67188 18.9844 5.29688C18.9219 4.89062 18.8438 4.5625 18.75 4.3125C18.375 3.34375 17.7031 2.67188 16.7344 2.29688C16.4844 2.20312 16.1562 2.125 15.75 2.0625C15.375 2 14.9062 1.95313 14.3438 1.92188C13.8125 1.89062 13.375 1.875 13.0312 1.875C12.7188 1.875 12.2344 1.875 11.5781 1.875C10.9531 1.875 10.6094 1.875 10.5469 1.875C10.4844 1.875 10.1406 1.875 9.51562 1.875C8.89062 1.875 8.40625 1.875 8.0625 1.875C7.71875 1.875 7.26562 1.89062 6.70312 1.92188C6.17188 1.95313 5.70312 2 5.29688 2.0625C4.92188 2.125 4.60938 2.20312 4.35938 2.29688C3.39062 2.67188 2.71875 3.34375 2.34375 4.3125C2.25 4.5625 2.17188 4.89062 2.10938 5.29688C2.04688 5.67188 2 6.14062 1.96875 6.70312C1.9375 7.23437 1.92188 7.67188 1.92188 8.01562C1.92188 8.32812 1.92188 8.8125 1.92188 9.46875C1.92188 10.0938 1.92188 10.4375 1.92188 10.5C1.92188 10.625 1.92188 10.9219 1.92188 11.3906C1.92188 11.8281 1.92188 12.2031 1.92188 12.5156C1.92188 12.7969 1.92188 13.1719 1.92188 13.6406C1.95312 14.1094 1.98438 14.5156 2.01562 14.8594C2.04688 15.1719 2.09375 15.5 2.15625 15.8438C2.21875 16.1875 2.28125 16.4688 2.34375 16.6875C2.75 17.6562 3.42188 18.3281 4.35938 18.7031C4.60938 18.7969 4.92188 18.875 5.29688 18.9375C5.70312 19 6.17188 19.0469 6.70312 19.0781C7.26562 19.1094 7.70312 19.125 8.01562 19.125C8.35938 19.125 8.84375 19.125 9.46875 19.125C10.125 19.125 10.4844 19.125 10.5469 19.125C10.6406 19.125 10.9844 19.125 11.5781 19.125C12.2031 19.125 12.6875 19.125 13.0312 19.125C13.375 19.125 13.8125 19.1094 14.3438 19.0781C14.9062 19.0469 15.375 19 15.75 18.9375C16.1562 18.875 16.4844 18.7969 16.7344 18.7031C17.7031 18.2969 18.375 17.625 18.75 16.6875Z" fill="white"/>
</svg>
