<svg width="22" height="19" viewBox="0 0 22 19" fill="none" xmlns="http://www.w3.org/2000/svg">
<path d="M21 2.14062L17.8125 17.0469C17.5625 18.1094 16.9844 18.3906 16.0781 17.8906L11.25 14.3281L8.90625 16.5781C8.59375 16.8906 8.26562 17.0469 7.92188 17.0469L8.29688 12.125L17.25 4.0625C17.4688 3.84375 17.4688 3.71875 17.25 3.6875C17.0625 3.625 16.8594 3.67188 16.6406 3.82812L5.57812 10.8125L0.796875 9.3125C0.265625 9.15625 0.015625 8.92188 0.046875 8.60938C0.078125 8.29688 0.40625 8.03125 1.03125 7.8125L19.6406 0.59375C20.1094 0.4375 20.4844 0.5 20.7656 0.78125C21.0469 1.03125 21.125 1.48438 21 2.14062Z" fill="white"/>
</svg>
