<svg width="36" height="35" viewBox="0 0 36 35" fill="none" xmlns="http://www.w3.org/2000/svg">
<path fill-rule="evenodd" clip-rule="evenodd" d="M35.0441 17.5001C35.0441 27.106 27.257 34.8931 17.6512 34.8931C8.04535 34.8931 0.25824 27.106 0.25824 17.5001C0.25824 7.89429 8.04535 0.107178 17.6512 0.107178C27.257 0.107178 35.0441 7.89429 35.0441 17.5001ZM11.9054 15.9069C10.163 16.6676 8.37285 17.4493 6.73585 18.3509C5.88107 18.9768 7.01713 19.4195 8.08297 19.8348C8.2524 19.9008 8.42003 19.9661 8.57765 20.0313C8.70882 20.0717 8.84217 20.1141 8.97733 20.1572C10.1627 20.5348 11.4844 20.956 12.6353 20.3225C14.5258 19.2365 16.3098 17.981 18.0925 16.7265C18.6765 16.3155 19.2604 15.9045 19.8479 15.4997C19.8754 15.4821 19.9064 15.462 19.9404 15.44C20.4408 15.1156 21.5663 14.386 21.15 15.3913C20.1656 16.4679 19.111 17.4209 18.0509 18.3792C17.3363 19.025 16.6191 19.6732 15.9191 20.3631C15.3094 20.8585 14.6762 21.8547 15.3589 22.5485C16.9315 23.6493 18.5286 24.7235 20.1248 25.7971C20.6442 26.1464 21.1636 26.4957 21.6819 26.8459C22.5604 27.5472 23.9333 26.9799 24.1264 25.8839C24.2123 25.3797 24.2986 24.8756 24.3848 24.3714C24.8614 21.5852 25.3381 18.7979 25.7592 16.0025C25.8165 15.564 25.8813 15.1256 25.9463 14.6869C26.1036 13.6237 26.2611 12.5592 26.3103 11.4902C26.1835 10.4234 24.8901 10.658 24.1703 10.8979C20.4705 12.3057 16.8077 13.8179 13.1594 15.3567C12.7461 15.5398 12.3271 15.7227 11.9054 15.9069Z" fill="#2FA4DE"/>
</svg>
