<svg width="25" height="21" viewBox="0 0 25 21" fill="none" xmlns="http://www.w3.org/2000/svg">
<path d="M22.0156 5.625C22.0469 5.75 22.0625 5.95312 22.0625 6.23438C22.0625 7.89062 21.75 9.54688 21.125 11.2031C20.5 12.8281 19.6094 14.3281 18.4531 15.7031C17.3281 17.0469 15.8594 18.1406 14.0469 18.9844C12.2344 19.8281 10.2344 20.25 8.04688 20.25C5.29688 20.25 2.78125 19.5156 0.5 18.0469C0.84375 18.0781 1.23438 18.0938 1.67188 18.0938C3.95312 18.0938 6 17.3906 7.8125 15.9844C6.71875 15.9844 5.75 15.6719 4.90625 15.0469C4.09375 14.3906 3.53125 13.5781 3.21875 12.6094C3.53125 12.6406 3.82812 12.6562 4.10938 12.6562C4.54688 12.6562 4.98438 12.6094 5.42188 12.5156C4.67188 12.3594 4 12.0469 3.40625 11.5781C2.8125 11.1094 2.34375 10.5469 2 9.89062C1.65625 9.20312 1.48438 8.46875 1.48438 7.6875V7.59375C2.17188 8 2.90625 8.21875 3.6875 8.25C2.21875 7.25 1.48438 5.875 1.48438 4.125C1.48438 3.25 1.71875 2.42188 2.1875 1.64062C3.40625 3.17188 4.89062 4.39063 6.64062 5.29688C8.42188 6.20312 10.3125 6.70312 12.3125 6.79688C12.25 6.42188 12.2188 6.04688 12.2188 5.67188C12.2188 4.32812 12.6875 3.17188 13.625 2.20312C14.5938 1.23437 15.75 0.75 17.0938 0.75C18.5312 0.75 19.7344 1.26562 20.7031 2.29688C21.8281 2.07812 22.875 1.6875 23.8438 1.125C23.4688 2.28125 22.75 3.1875 21.6875 3.84375C22.625 3.71875 23.5625 3.45313 24.5 3.04688C23.8125 4.04687 22.9844 4.90625 22.0156 5.625Z" fill="white"/>
</svg>
