<svg width="36" height="35" viewBox="0 0 36 35" fill="none" xmlns="http://www.w3.org/2000/svg">
<path fill-rule="evenodd" clip-rule="evenodd" d="M18.0365 0.107178C27.6424 0.107178 35.4295 7.89427 35.4295 17.5001C35.4295 27.106 27.6424 34.8931 18.0365 34.8931C8.43064 34.8931 0.643555 27.106 0.643555 17.5001C0.643555 7.89427 8.43064 0.107178 18.0365 0.107178ZM22.6704 15.2959C22.5858 14.6086 22.3745 14.069 21.9994 13.591C21.5123 12.9755 20.8898 12.607 19.9682 12.3883C19.3676 12.2426 19.125 12.2594 18.9077 12.4578C18.7054 12.6437 18.6659 13.0163 18.8205 13.2577C18.9293 13.4328 19.0547 13.4956 19.4036 13.5641C19.8682 13.6496 20.1893 13.7605 20.4814 13.9275C21.1013 14.2855 21.39 14.8456 21.4209 15.7525C21.4354 16.1783 21.4722 16.3092 21.6209 16.4602C21.8965 16.7363 22.3871 16.6826 22.5952 16.3522C22.6715 16.2277 22.6832 16.1735 22.6912 15.8844C22.6966 15.7054 22.6889 15.4389 22.6704 15.2959ZM22.6786 11.0793C24.1525 12.2712 24.9761 13.9652 25.0985 16.0708C25.15 16.9001 25.0816 17.1702 24.789 17.324C24.525 17.4666 24.2259 17.4196 24.0207 17.205C23.8847 17.0654 23.8325 16.8745 23.8345 16.5365C23.8405 15.6018 23.6251 14.5579 23.275 13.8336C22.8698 12.9907 22.2434 12.2733 21.4554 11.7488C20.7652 11.2881 19.8517 10.977 18.966 10.8995C18.3915 10.8492 18.1863 10.7519 18.0761 10.4765C18.0078 10.3118 18.0258 10.0269 18.1059 9.89938C18.1816 9.78175 18.3515 9.65167 18.4717 9.61728C18.599 9.58015 19.3411 9.64507 19.7441 9.72517C20.8444 9.94912 21.8482 10.4096 22.6786 11.0793ZM27.7854 24.1793C27.7443 24.0589 27.6482 23.8733 27.5795 23.7667C27.1469 23.1135 24.823 21.2949 23.6628 20.7001C23.0003 20.3598 22.5094 20.2463 22.1455 20.3528C21.7542 20.4629 21.5482 20.6451 20.8926 21.4599C20.6283 21.7865 20.3571 22.0925 20.285 22.1406C20.1065 22.2643 19.7564 22.3641 19.5092 22.3641C18.9359 22.3606 17.8958 21.9893 17.096 21.5011C16.4747 21.123 15.6783 20.4457 15.0673 19.7753C14.3464 18.988 13.8556 18.2936 13.4676 17.5097C12.9665 16.5024 12.8395 15.887 13.0488 15.4366C13.1003 15.3232 13.169 15.2029 13.1999 15.165C13.2308 15.1307 13.5535 14.866 13.9104 14.5772C14.6107 14.0203 14.724 13.8931 14.8544 13.5114C15.0192 13.0267 14.9746 12.5316 14.7206 12.0331C14.5249 11.655 14.0134 10.8299 13.6427 10.297C13.1518 9.5957 11.9298 8.09678 11.686 7.89388C11.2466 7.53637 10.6837 7.47445 10.0624 7.71516C9.40676 7.96957 8.17781 8.95967 7.6526 9.6507C7.17888 10.2764 6.99701 10.7199 6.96952 11.3043C6.94551 11.7856 6.98668 11.985 7.24071 12.6004C9.22825 17.4272 12.1941 21.2811 16.2687 24.3409C18.397 25.9395 20.6042 27.1565 22.8938 27.9885C24.2291 28.4732 24.8093 28.4973 25.4924 28.0985C25.7807 27.9266 26.4947 27.1943 26.8929 26.6615C27.552 25.7744 27.7957 25.3654 27.8644 25.0387C27.9124 24.8153 27.8747 24.4268 27.7854 24.1793ZM26.9077 13.2972C27.3259 14.3864 27.5264 15.3633 27.5704 16.5543C27.5773 16.7896 27.5741 17.2207 27.5589 17.5127C27.5271 18.0725 27.4967 18.1837 27.3356 18.3318C27.0766 18.5748 26.5717 18.5169 26.3802 18.224C26.2802 18.0669 26.2662 17.9518 26.2855 17.2978C26.3411 15.3632 25.9498 13.8484 25.0072 12.3338C23.8809 10.5166 22.1962 9.2925 20.0054 8.69362C19.4467 8.54118 18.9759 8.44828 18.2436 8.3497C17.7666 8.28726 17.6622 8.26087 17.5445 8.18841C17.1888 7.96063 17.1841 7.38386 17.5386 7.15262C17.7216 7.03055 17.8565 7.02509 18.4528 7.10146C20.2013 7.31997 21.7616 7.83955 23.0437 8.62469C23.9627 9.18821 24.5421 9.69446 25.2881 10.5811C26.0771 11.5267 26.4949 12.2258 26.9077 13.2972Z" fill="#7360F2"/>
</svg>
