<svg width="27" height="19" viewBox="0 0 27 19" fill="none" xmlns="http://www.w3.org/2000/svg">
<path d="M25.7812 3.3125C25.875 3.6875 25.9531 4.15625 26.0156 4.71875C26.1094 5.28125 26.1719 5.84375 26.2031 6.40625C26.2344 6.9375 26.25 7.4375 26.25 7.90625C26.2812 8.375 26.2969 8.76562 26.2969 9.07812V9.5C26.2969 12.3125 26.125 14.3906 25.7812 15.7344C25.625 16.2656 25.3438 16.7344 24.9375 17.1406C24.5312 17.5469 24.0469 17.8281 23.4844 17.9844C22.8906 18.1406 21.7656 18.2656 20.1094 18.3594C18.4531 18.4219 16.9375 18.4688 15.5625 18.5H13.5C8.15625 18.5 4.82812 18.3281 3.51562 17.9844C2.29688 17.6406 1.53125 16.8906 1.21875 15.7344C1.0625 15.1406 0.9375 14.3281 0.84375 13.2969C0.78125 12.2344 0.734375 11.3438 0.703125 10.625V9.5C0.703125 6.71875 0.875 4.65625 1.21875 3.3125C1.375 2.75 1.65625 2.26563 2.0625 1.85938C2.46875 1.45312 2.95312 1.17187 3.51562 1.01562C4.10938 0.859375 5.23438 0.75 6.89062 0.6875C8.54688 0.59375 10.0625 0.53125 11.4375 0.5H13.5C18.8438 0.5 22.1719 0.671875 23.4844 1.01562C24.0469 1.17187 24.5312 1.45312 24.9375 1.85938C25.3438 2.26563 25.625 2.75 25.7812 3.3125ZM10.875 13.3438L17.5781 9.5L10.875 5.70312V13.3438Z" fill="white"/>
</svg>
